# xmcd
#
# Track frame offsets: 
#        150
#        13071
#        27579
#        43284
#        59757
#        74647
#        87491
#        99747
#        115793
#        130273
#
# Disc length: 1892 seconds
#
# Revision: 0
# Processed by: cddbd v1.5.2PL0 Copyright (c) Steve Scherf et al.
# Submitted via: ExactAudioCopy v1.3
#
DISCID=9907620a
DTITLE=Larkin Poe - Venom and Faith
DYEAR=2018
DGENRE=Blues
TTITLE0=Sometimes
TTITLE1=Beach Blonde Bottle Blues
TTITLE2=Honey Honey
TTITLE3=Mississippi
TTITLE4=California King
TTITLE5=Blue Ridge Mountains
TTITLE6=Fly Like An Eagle
TTITLE7=Ain't Gonna Cry
TTITLE8=Hard Time Killing Floor Blues
TTITLE9=Good And Gone
EXTD=
EXTT0=
EXTT1=
EXTT2=
EXTT3=
EXTT4=
EXTT5=
EXTT6=
EXTT7=
EXTT8=
EXTT9=
PLAYORDER=
